<?xml version="1.0" encoding="UTF-8"?>
<!DOCTYPE svg PUBLIC "-//W3C//DTD SVG 1.1//EN" "http://www.w3.org/Graphics/SVG/1.1/DTD/svg11.dtd">
<svg xmlns="http://www.w3.org/2000/svg" version="1.1" width="1166px" height="317px" style="shape-rendering:geometricPrecision; text-rendering:geometricPrecision; image-rendering:optimizeQuality; fill-rule:evenodd; clip-rule:evenodd" xmlns:xlink="http://www.w3.org/1999/xlink">
<g><path style="opacity:0.961" fill="#020202" d="M 829.5,20.5 C 844.089,17.4341 856.589,21.1007 867,31.5C 867.49,32.7932 867.657,34.1266 867.5,35.5C 805.771,39.7829 744.105,44.7829 682.5,50.5C 682.494,78.1716 682.161,105.838 681.5,133.5C 702.254,132.658 722.921,130.825 743.5,128C 741.747,120.624 741.247,113.124 742,105.5C 742.692,104.975 743.192,104.308 743.5,103.5C 736.575,101.037 729.908,98.0365 723.5,94.5C 721.914,92.8273 721.247,90.8273 721.5,88.5C 723.527,88.3379 725.527,88.5045 727.5,89C 734.3,92.067 741.3,94.567 748.5,96.5C 754.134,95.4246 759.801,95.2579 765.5,96C 767.696,101.534 771.363,105.867 776.5,109C 784.5,111.667 792.5,114.333 800.5,117C 801.747,118.494 801.747,119.994 800.5,121.5C 798.885,122.154 797.218,122.654 795.5,123C 798.172,124.557 801.005,125.724 804,126.5C 898.489,117.668 992.989,108.834 1087.5,100C 1088.67,98.8333 1089.83,97.6667 1091,96.5C 1091.8,86.2987 1091.63,76.132 1090.5,66C 1090.61,64.7202 1091.28,63.8869 1092.5,63.5C 1094.75,64.2531 1096.59,65.5864 1098,67.5C 1106.55,82.026 1110.21,97.6926 1109,114.5C 1108.1,115.701 1106.93,116.535 1105.5,117C 1035.65,127.364 965.982,138.698 896.5,151C 900.971,154.934 905.805,155.434 911,152.5C 914.461,153.218 917.961,153.718 921.5,154C 926.813,162.62 934.48,168.287 944.5,171C 949.353,172.255 954.186,173.422 959,174.5C 961.154,178.394 959.821,180.394 955,180.5C 947.351,179.506 940.018,177.506 933,174.5C 931.919,178.092 930.919,181.759 930,185.5C 928.509,187.004 926.676,187.837 924.5,188C 917.452,188.73 910.452,188.397 903.5,187C 902,186.167 900.833,185 900,183.5C 899.818,180.774 899.318,178.107 898.5,175.5C 882.884,169.238 867.217,163.072 851.5,157C 845.833,156.333 840.167,156.333 834.5,157C 782.478,160.938 730.478,165.104 678.5,169.5C 678.169,178.192 678.502,186.859 679.5,195.5C 688.52,202.353 696.353,210.353 703,219.5C 703.652,222.594 703.318,225.594 702,228.5C 698.833,231 695.667,233.5 692.5,236C 683.506,236.5 674.506,236.666 665.5,236.5C 669.865,252.287 674.698,267.953 680,283.5C 680.667,285.5 680.667,287.5 680,289.5C 676.243,290.711 672.576,290.377 669,288.5C 663.353,271.562 658.186,254.562 653.5,237.5C 648.489,237.666 643.489,237.499 638.5,237C 612.992,227.386 587.158,218.552 561,210.5C 560.5,210.667 560,210.833 559.5,211C 563.612,217.384 567.612,223.884 571.5,230.5C 566.382,234.864 561.882,234.198 558,228.5C 552.789,220.581 547.955,212.414 543.5,204C 538.522,202.672 533.522,201.505 528.5,200.5C 528.66,202.199 528.494,203.866 528,205.5C 521.707,210.116 514.54,211.616 506.5,210C 504.957,208.122 503.124,206.622 501,205.5C 500.667,203.167 500.333,200.833 500,198.5C 495.209,210.662 490.875,222.995 487,235.5C 485.178,237.045 483.011,237.712 480.5,237.5C 476.862,238.263 474.529,236.93 473.5,233.5C 478.317,219.712 483.317,206.046 488.5,192.5C 485.715,189.6 482.382,187.434 478.5,186C 452.081,186.614 425.748,188.614 399.5,192C 401.649,192.579 403.815,193.079 406,193.5C 408.478,192.668 410.978,192.501 413.5,193C 423.389,201.116 434.389,207.449 446.5,212C 448.922,213.888 448.922,215.888 446.5,218C 439.461,218.696 432.627,217.863 426,215.5C 426.082,220.057 424.915,224.224 422.5,228C 413.523,229.825 404.523,229.825 395.5,228C 394.572,227.612 393.905,226.945 393.5,226C 392.576,222.472 391.576,218.972 390.5,215.5C 372.28,208.704 353.947,202.204 335.5,196C 255.827,195.903 176.16,196.736 96.5,198.5C 87.5,198.333 78.5,198.167 69.5,198C 55.6075,195.106 46.4409,186.939 42,173.5C 40.6647,168.817 39.3314,164.15 38,159.5C 37.3333,153.833 37.3333,148.167 38,142.5C 38.5613,141.978 39.228,141.645 40,141.5C 42.0257,142.52 43.3591,144.187 44,146.5C 47.3108,158.106 51.9775,169.106 58,179.5C 59.0674,180.191 60.2341,180.691 61.5,181C 82.5381,181.686 103.538,181.02 124.5,179C 162.879,175.844 201.212,172.511 239.5,169C 238.333,168.5 237.5,167.667 237,166.5C 236.166,161.666 235.333,156.833 234.5,152C 234.396,149.855 235.063,148.021 236.5,146.5C 226.5,141.167 216.5,135.833 206.5,130.5C 205.157,126.808 206.49,124.474 210.5,123.5C 226.663,128.828 242.996,133.328 259.5,137C 262.484,139.826 265.817,142.159 269.5,144C 278.103,147.302 286.437,151.136 294.5,155.5C 295.631,157.074 295.798,158.741 295,160.5C 292.649,161.714 290.149,162.548 287.5,163C 289.087,163.862 290.754,164.529 292.5,165C 310.52,164.736 328.52,163.736 346.5,162C 385.135,158.096 423.802,154.596 462.5,151.5C 462.5,150.5 462.5,149.5 462.5,148.5C 442.288,148.606 422.122,149.606 402,151.5C 397.833,151.333 393.667,151.167 389.5,151C 387.475,149.806 387.141,148.306 388.5,146.5C 413.751,142.512 439.085,139.178 464.5,136.5C 465.95,130.101 468.616,124.268 472.5,119C 469.08,109.092 470.08,99.7584 475.5,91C 481.949,91.3068 487.949,89.9734 493.5,87C 497.625,86.1462 501.625,86.4796 505.5,88C 506.974,94.3729 507.64,100.873 507.5,107.5C 513.434,106.889 519.1,107.722 524.5,110C 534.167,117 543.833,124 553.5,131C 563.549,131.135 573.549,131.802 583.5,133C 584.731,134.183 584.731,135.349 583.5,136.5C 578.256,138.311 572.923,139.811 567.5,141C 568.777,142.786 570.444,143.952 572.5,144.5C 597.117,141.638 621.783,139.305 646.5,137.5C 648.565,109.189 650.232,80.8561 651.5,52.5C 593.867,56.7311 536.2,60.2311 478.5,63C 474.388,61.2214 471.222,58.3881 469,54.5C 468.289,52.6332 468.789,51.1332 470.5,50C 590.384,40.9969 710.051,31.1635 829.5,20.5 Z M 626.5,171.5 C 631.975,170.511 637.642,170.178 643.5,170.5C 643.826,174.884 643.492,179.217 642.5,183.5C 636.779,179.978 631.446,175.978 626.5,171.5 Z M 501.5,194.5 C 503.048,194.821 503.715,195.821 503.5,197.5C 502.448,197.649 501.448,197.483 500.5,197C 501.252,196.329 501.586,195.496 501.5,194.5 Z"/></g>
</svg>
