<svg width="599" height="495" viewBox="0 0 599 495" fill="none" xmlns="http://www.w3.org/2000/svg">
<path opacity="0.999" fill-rule="evenodd" clip-rule="evenodd" d="M242.095 129.577C240.665 128.115 239.001 126.913 237.104 125.97C209.539 111.345 181.992 96.5472 154.464 81.5751C150.24 77.4597 150.979 75.887 156.682 76.8582C159.271 78.1528 161.859 79.4481 164.447 80.7427C163.174 80.9114 162.989 81.4663 163.892 82.4075C162.486 81.9364 161.1 81.3814 159.733 80.7427C158.72 81.0257 158.627 81.4885 159.455 82.13C188.237 95.974 216.708 110.402 244.868 125.415C255.897 129.729 266.99 133.891 278.146 137.901C278.94 137.771 279.218 137.401 278.978 136.791C277.301 135.571 275.73 134.277 274.264 132.906C274.352 131.989 274.722 131.249 275.373 130.687C276.623 131.194 277.732 131.934 278.701 132.906C279.071 132.722 279.44 132.536 279.81 132.351C280.92 126.158 284.248 121.626 289.793 118.756C305.31 115.043 320.469 116.246 335.273 122.363C335.643 122.178 336.012 121.993 336.382 121.808C333.616 120.142 331.028 118.292 328.617 116.258C329.241 115.426 329.981 114.686 330.836 114.039C334.45 115.71 337.5 118.115 339.987 121.253C344.673 130.449 348.278 140.067 350.803 150.109C351.601 138.437 351.416 126.783 350.248 115.149C340.56 107.435 330.576 100.128 320.298 93.2287C315.954 89.6216 311.609 86.0146 307.264 82.4075C306.637 76.1229 305.991 69.8338 305.323 63.5398C302.51 65.1596 299.644 66.6396 296.726 67.9793C295.461 67.2712 294.352 66.3461 293.398 65.2046C291.768 62.1269 290.289 58.9821 288.961 55.7707C285.996 47.6071 283.038 39.4681 280.087 31.3537C274.523 48.8483 271.473 66.7911 270.936 85.1822C271.001 86.5973 271.555 87.7071 272.6 88.5118C273.407 90.0001 274.147 91.4801 274.818 92.9512C274.264 92.9512 273.709 92.9512 273.154 92.9512C270.176 90.9096 267.218 88.8747 264.28 86.847C263.287 85.4241 263.657 84.4991 265.39 84.0723C266.12 80.4719 266.12 76.957 265.39 73.5286C266.925 55.2081 270.9 37.4503 277.314 20.255C278.659 18.5114 280.23 18.234 282.029 19.4226C283.042 22.4678 284.428 25.335 286.188 28.0241C301.922 14.4671 320.132 6.42056 340.819 3.88452C342.818 4.62477 343.465 6.01208 342.761 8.04652C341.766 9.59772 340.564 10.9851 339.155 12.2085C333.722 16.2589 328.545 20.6058 323.626 25.2494C321.994 25.662 320.33 25.9395 318.634 26.0818C320.032 27.0603 321.326 28.1702 322.517 29.4114C329.738 28.5639 336.948 27.4541 344.147 26.0818C353.941 25.1953 363.74 24.3629 373.542 23.5846C381.542 24.2171 389.492 25.2345 397.392 26.6368C403.913 28.5123 410.384 30.547 416.804 32.741C418.054 33.505 419.255 34.3374 420.409 35.2382C420.521 36.9926 419.689 38.195 417.913 38.8453C403.008 42.7333 388.033 46.1554 372.988 49.1115C372.169 45.9853 370.967 43.0256 369.383 40.2326C366.861 44.9091 364.642 49.7185 362.727 54.6609C360.103 55.9688 357.422 57.1708 354.685 58.2679C368.384 57.6786 382.064 58.0482 395.728 59.3778C420.239 62.6236 441.223 72.8899 458.678 90.1766C460.602 91.9912 461.804 94.2109 462.283 96.8358C462.21 98.0017 461.655 98.8341 460.619 99.333C458.99 99.3269 457.419 99.419 455.905 99.6104C438.366 96.1754 420.71 93.3086 402.938 91.009C400.808 88.049 398.59 85.1822 396.282 82.4075C393.225 85.1888 390.267 88.0562 387.408 91.009C379.99 90.8475 372.595 91.4024 365.223 92.6738C381.657 97.1016 396.262 104.871 409.039 115.981C413.517 122.703 411.668 125.108 403.492 123.195C394.895 120.069 386.021 118.219 376.87 117.646C370.954 117.276 365.038 117.276 359.122 117.646C355.837 118.822 355.005 121.134 356.626 124.582C357.3 137.955 356.746 151.273 354.962 164.538C354.408 165.647 353.853 166.757 353.298 167.867C353.23 171.37 352.768 174.792 351.912 178.133C365.546 177.459 375.622 171.077 382.139 158.988C384.512 154.454 385.992 149.645 386.576 144.56C387.25 143.7 388.082 143.053 389.072 142.618C432.18 129.569 475.257 116.435 518.301 103.217C536.762 96.8768 555.062 90.2176 573.209 83.2399C575.738 82.327 578.328 81.9569 580.974 82.13C582.799 84.4685 583.725 87.1505 583.747 90.1766C583.42 93.2814 582.588 96.2409 581.251 99.0555C572.521 116.217 560.78 131.107 546.032 143.728C555.805 142.884 565.605 142.329 575.428 142.063C576.72 142.803 577.275 143.912 577.092 145.392C576.842 147.284 576.193 149.042 575.15 150.664C569.715 157.397 563.708 163.594 557.125 169.254C546.242 178.03 534.781 185.983 522.738 193.117C532.362 194.135 541.976 195.245 551.579 196.446C554.311 197.752 555.328 199.879 554.629 202.828C553.449 204.565 552.062 206.137 550.469 207.545C533.469 221.88 514.243 232.331 492.788 238.899C496.914 240.803 501.167 242.561 505.544 244.17C506.941 245.68 508.051 247.345 508.872 249.165C508.803 250.068 508.525 250.9 508.04 251.662C504.285 254.606 500.125 256.919 495.561 258.599C477.534 264.71 459.046 266.745 440.098 264.703C445.723 269.959 451.361 275.231 457.014 280.519C457.793 281.57 458.44 282.679 458.955 283.848C458.879 284.74 458.509 285.48 457.846 286.068C456.072 287.38 454.223 288.582 452.3 289.675C432.439 296.411 413.211 295.024 394.618 285.513C394.434 285.698 394.248 285.883 394.064 286.068C396.972 289.254 396.972 292.399 394.064 295.502C389.755 296.33 385.504 296.053 381.307 294.669C367.988 290.034 356.988 282.173 348.307 271.085C347.843 278.687 348.027 286.271 348.861 293.837C354.186 308.34 359.733 322.768 365.5 337.122C369.198 344.891 372.895 352.66 376.593 360.429C398.999 398.783 420.999 437.443 442.594 476.41C442.868 477.317 442.96 478.242 442.871 479.184C437.783 478.767 432.791 477.749 427.896 476.132C399.367 464.888 370.618 454.067 341.651 443.669C339.67 432.194 337.636 420.725 335.55 409.263C330.088 387.131 322.323 365.858 312.256 345.446C306.34 336.197 300.424 326.948 294.508 317.699C287.991 311.157 280.503 306.07 272.045 302.438C267.605 299.964 263.261 297.282 259.011 294.392C252.541 286.456 247.734 277.577 244.591 267.755C234.896 278.764 223.064 286.349 209.095 290.507C208.044 290.443 207.119 290.073 206.322 289.397C205.645 287.893 205.183 286.321 204.935 284.681C206.186 281.716 207.665 278.849 209.372 276.079C209.095 275.894 208.817 275.709 208.54 275.524C193.243 282.082 177.251 285.782 160.565 286.623C155.492 286.523 150.5 285.876 145.59 284.681C143.926 283.663 142.262 282.646 140.598 281.628C138.811 280.211 138.534 278.546 139.766 276.634C142.632 274.137 145.497 271.64 148.363 269.142C132.882 268.782 118.092 265.452 103.992 259.154C98.3818 256.488 93.2975 253.065 88.7401 248.887C87.3663 244.886 88.7529 242.204 92.8999 240.841C96.8882 239.141 100.956 237.661 105.102 236.401C80.1462 230.259 59.5322 217.403 43.2605 197.834C42.0646 195.746 41.6949 193.526 42.1513 191.174C42.5833 190.493 43.1379 189.938 43.8151 189.51C49.9984 189.038 56.1917 188.576 62.3952 188.122C44.5245 178.012 29.8268 164.417 18.3022 147.335C17.0346 144.298 16.6649 141.154 17.1929 137.901C17.4702 137.623 17.7476 137.346 18.0249 137.068C19.319 136.976 20.6132 136.884 21.9073 136.791C33.5366 138.177 45.1839 139.194 56.8489 139.843C39.826 131.874 26.9771 119.573 18.3022 102.94C15.4086 96.4762 13.6523 89.7243 13.0332 82.685C13.2701 79.8609 14.7491 78.9358 17.4702 79.9103C54.1685 90.9784 90.9587 101.707 127.842 112.096C154.949 121.384 182.125 130.447 209.372 139.288C210.79 139.668 211.807 140.501 212.423 141.785C212.845 158.47 220.887 169.477 236.549 174.804C240.4 175.611 244.283 175.796 248.196 175.359C247.158 172.219 246.511 168.981 246.255 165.647C245.966 157.312 245.966 148.988 246.255 140.675C245.642 136.677 244.256 132.977 242.095 129.577Z" fill="#050604"/>
<path fill-rule="evenodd" clip-rule="evenodd" d="M326.955 11.931C327.716 11.8441 328.456 11.9366 329.173 12.2085C326.252 14.4932 323.479 16.8979 320.854 19.4226C317.505 19.6094 314.177 19.9793 310.871 20.5325C308.924 21.5905 308.277 23.1628 308.929 25.2494C311.695 27.9565 314.56 30.4537 317.526 32.741C313.947 37.7719 310.712 43.0438 307.82 48.5566C306.674 51.2555 305.75 54.0301 305.047 56.8806C303.152 58.1525 301.211 59.355 299.223 60.4877C298.423 60.9211 297.683 60.8284 297.005 60.2102C296.264 58.3578 295.524 56.5077 294.786 54.6609C296.363 47.4272 298.859 40.5831 302.274 34.1284C303.586 28.0482 301.922 27.1233 297.282 31.3537C295.244 35.9971 293.211 40.6216 291.181 45.227C290.038 41.6466 288.744 38.132 287.299 34.6833C286.929 33.9434 286.929 33.2034 287.299 32.4636C292.322 29.4399 297.221 26.2029 301.997 22.7522C309.977 18.2153 318.297 14.6083 326.955 11.931Z" fill="#B31312"/>
<path fill-rule="evenodd" clip-rule="evenodd" d="M363.006 30.2438C368.737 29.5039 374.468 29.5039 380.199 30.2438C375.02 30.1514 369.843 30.2439 364.67 30.5213C365.779 30.7063 366.888 30.8913 367.998 31.0762C367.813 31.2612 367.628 31.4462 367.443 31.6312C368.671 32.2104 369.965 32.5804 371.325 32.741C371.742 33.1133 371.928 33.5757 371.88 34.1284C370.347 32.9179 368.684 32.7329 366.888 33.5734C366.701 31.7239 365.777 31.169 364.115 31.9086C363.443 31.4792 363.443 31.0167 364.115 30.5213C363.786 30.2636 363.416 30.1711 363.006 30.2438Z" fill="#971B1A"/>
<path fill-rule="evenodd" clip-rule="evenodd" d="M380.2 30.2438C389.941 30.776 399.369 32.7183 408.486 36.0706C397.876 38.6202 387.152 40.9324 376.317 43.0073C375.947 42.8223 375.578 42.6373 375.208 42.4523C374.181 39.6252 373.071 36.8505 371.88 34.1284C371.928 33.5757 371.743 33.1133 371.325 32.741C369.966 32.5804 368.672 32.2104 367.443 31.6312C367.628 31.4462 367.813 31.2612 367.998 31.0762C366.888 30.8913 365.779 30.7063 364.67 30.5213C369.843 30.2439 375.02 30.1514 380.2 30.2438Z" fill="#B41212"/>
<path fill-rule="evenodd" clip-rule="evenodd" d="M336.382 33.0185C333.574 33.9734 330.617 34.5283 327.508 34.6833C330.315 33.7284 333.273 33.1735 336.382 33.0185Z" fill="#751C1B"/>
<path fill-rule="evenodd" clip-rule="evenodd" d="M363.004 30.2438C363.414 30.1711 363.784 30.2637 364.114 30.5213C363.442 31.0168 363.442 31.4792 364.114 31.9086C365.775 31.169 366.7 31.7239 366.887 33.5734C366.178 34.933 365.346 36.2278 364.391 37.458C362.768 42.1487 360.827 46.6807 358.567 51.0538C342.044 58.4816 326.514 67.4532 311.978 77.9681C311.239 72.2339 311.239 66.4993 311.978 60.7651C321.918 55.3165 332.086 50.2296 342.483 45.5045C344.473 44.1853 346.414 42.7979 348.307 41.3425C348.706 40.4477 348.614 39.6153 348.029 38.8453C346.144 38.5423 344.295 38.7273 342.483 39.4002C332.261 43.8669 322.277 48.7688 312.533 54.106C314.609 47.0967 318.121 40.7149 323.071 34.9608C324.538 34.6847 326.018 34.5922 327.508 34.6833C330.617 34.5283 333.574 33.9734 336.382 33.0185C345.186 31.5087 354.06 30.5838 363.004 30.2438Z" fill="#B51212"/>
<path fill-rule="evenodd" clip-rule="evenodd" d="M330.837 114.039C322.291 107.458 312.863 102.371 302.551 98.778C297.209 98.04 291.848 97.485 286.467 97.1132C281.814 94.2337 277.192 91.3669 272.601 88.5118C271.557 87.7071 271.002 86.5973 270.938 85.1822C271.474 66.7911 274.525 48.8483 280.089 31.3537C283.04 39.4681 285.997 47.6071 288.963 55.7707C290.291 58.9821 291.769 62.1269 293.4 65.2046C294.353 66.3461 295.463 67.2712 296.728 67.9793C299.646 66.6397 302.511 65.1596 305.325 63.5398C305.992 69.8338 306.639 76.1229 307.266 82.4075C311.61 86.0146 315.955 89.6216 320.3 93.2287C330.578 100.128 340.561 107.435 350.25 115.149C351.418 126.783 351.602 138.437 350.804 150.109C348.279 140.067 344.674 130.449 339.989 121.253C337.502 118.115 334.451 115.71 330.837 114.039Z" fill="#B6850D"/>
<path fill-rule="evenodd" clip-rule="evenodd" d="M383.526 63.5398C373.174 63.7962 362.822 63.9815 352.467 64.0947C358.639 63.2701 364.925 62.9 371.324 62.9849C375.488 62.9849 379.555 63.1702 383.526 63.5398Z" fill="#941617"/>
<path fill-rule="evenodd" clip-rule="evenodd" d="M352.467 64.0947C362.822 63.9815 373.174 63.7962 383.526 63.5398C402.823 64.2007 420.571 69.6579 436.77 79.9103C441.931 83.5956 446.737 87.6655 451.191 92.1188C440.844 90.6388 430.491 88.974 420.131 87.1244C414.77 86.5695 409.409 86.0146 404.047 85.4596C402.661 83.3326 401.274 81.205 399.887 79.0779C399.109 77.7439 398 76.8188 396.56 76.3032C392.716 78.9453 389.296 82.0901 386.299 85.7371C385.64 86.2526 384.9 86.4374 384.081 86.292C384.019 85.9496 383.834 85.6722 383.526 85.4596C379.274 85.0895 375.022 85.0895 370.769 85.4596C370.083 85.5884 369.529 85.8658 369.106 86.292C356.681 87.4973 345.311 91.5667 334.996 98.5006C330.296 95.828 325.952 92.6832 321.962 89.0667C328.354 84.9447 335.194 81.7077 342.483 79.3554C353.527 76.7766 364.62 74.5569 375.761 72.6962C376.316 72.4187 376.87 72.1413 377.425 71.8638C378.164 71.3089 378.164 70.7539 377.425 70.199C375.379 68.9615 373.16 68.4066 370.769 68.5342C355.99 69.8072 341.755 73.2295 328.063 78.8004C324.321 80.9036 320.716 83.2155 317.248 85.7371C315.989 84.6911 314.787 83.5812 313.643 82.4075C322.746 75.4281 332.36 69.2312 342.483 63.8173C345.786 63.986 349.114 64.0786 352.467 64.0947Z" fill="#B41212"/>
<path opacity="0.999" fill-rule="evenodd" clip-rule="evenodd" d="M265.39 73.5286C266.12 76.957 266.12 80.4719 265.39 84.0723C263.657 84.4991 263.287 85.4241 264.281 86.847C263.67 86.1256 262.931 85.8481 262.062 86.0146C261.344 87.1727 260.697 88.3753 260.121 89.6216C258.17 97.0977 256.044 104.497 253.743 111.819C254.099 113.747 255.209 114.394 257.07 113.761C260.371 110.447 264.069 107.672 268.163 105.437C272.807 103.549 277.429 101.607 282.029 99.6104C279.253 97.1155 276.294 94.8957 273.155 92.9512C273.709 92.9512 274.264 92.9512 274.819 92.9512C274.147 91.4801 273.407 90.0001 272.6 88.5118C277.191 91.3669 281.813 94.2337 286.466 97.1132C291.847 97.485 297.208 98.04 302.55 98.778C312.861 102.371 322.29 107.458 330.836 114.039C329.981 114.686 329.242 115.426 328.618 116.258C322.212 112.036 315.557 108.244 308.651 104.882C289.551 98.7508 272.728 102.45 258.18 115.981C258.7 117.06 259.44 117.985 260.398 118.756C265.494 122.657 270.485 126.634 275.373 130.687C274.722 131.249 274.353 131.989 274.264 132.906C267.948 128.537 261.847 123.82 255.961 118.756C236.598 110.88 217.001 103.481 197.17 96.5583C185.89 92.0933 174.797 87.3764 163.893 82.4075C162.989 81.4664 163.174 80.9114 164.447 80.7427C168.127 81.8398 171.825 82.9497 175.54 84.0723C176.048 84.0485 176.418 83.8637 176.649 83.5174C177.32 83.7571 177.875 84.1273 178.313 84.6272C178.903 85.4868 180.012 86.1339 181.641 86.5695C204.541 95.1615 227.466 103.578 250.415 111.819C251.121 111.399 251.121 111.029 250.415 110.709C252.361 101.445 255.042 92.3813 258.457 83.5174C259.981 80.3149 262.014 79.9453 264.558 82.4075C265.165 79.4775 265.443 76.518 265.39 73.5286Z" fill="#0C0905"/>
<path opacity="0.098" fill-rule="evenodd" clip-rule="evenodd" d="M156.684 76.8582C163.364 78.963 170.02 81.1828 176.65 83.5174C176.419 83.8637 176.049 84.0484 175.541 84.0723C171.826 82.9497 168.128 81.8398 164.448 80.7427C161.86 79.4481 159.272 78.1528 156.684 76.8582Z" fill="#2C2A21"/>
<path fill-rule="evenodd" clip-rule="evenodd" d="M384.08 86.292C379.102 85.6061 374.11 85.6061 369.105 86.292C369.529 85.8659 370.083 85.5884 370.769 85.4596C375.022 85.0895 379.273 85.0895 383.526 85.4596C383.834 85.6722 384.019 85.9496 384.08 86.292Z" fill="#741617"/>
<path fill-rule="evenodd" clip-rule="evenodd" d="M19.6895 86.847C44.69 93.2864 69.4636 100.593 94.0098 108.767C116.503 114.115 138.688 120.497 160.565 127.912C160.691 131.908 161.615 135.7 163.339 139.288C119.147 130.148 74.9616 120.715 30.782 110.987C25.4293 103.708 21.7317 95.6615 19.6895 86.847Z" fill="#0D6935"/>
<path fill-rule="evenodd" clip-rule="evenodd" d="M577.092 88.5118C577.747 88.3902 578.301 88.575 578.756 89.0667C574.175 99.9972 568.263 110.079 561.008 119.311C518.262 128.428 475.462 137.4 432.611 146.225C432.334 146.04 432.057 145.855 431.779 145.67C433.658 142.404 434.583 138.889 434.552 135.126C444.099 132.275 453.713 129.593 463.393 127.08C482.352 120.904 501.394 114.984 520.52 109.322C539.526 102.645 558.385 95.7087 577.092 88.5118Z" fill="#0C6936"/>
<path fill-rule="evenodd" clip-rule="evenodd" d="M264.28 86.847C267.217 88.8747 270.175 90.9096 273.154 92.9512C276.294 94.8957 279.252 97.1154 282.028 99.6104C277.429 101.607 272.807 103.549 268.163 105.437C264.068 107.672 260.371 110.447 257.07 113.761C255.208 114.394 254.099 113.747 253.742 111.819C256.043 104.497 258.169 97.0977 260.12 89.6216C260.697 88.3752 261.344 87.1727 262.062 86.0146C262.93 85.8481 263.67 86.1256 264.28 86.847Z" fill="#B4830D"/>
<path fill-rule="evenodd" clip-rule="evenodd" d="M163.892 82.4075C174.797 87.3764 185.889 92.0933 197.17 96.5583C217.001 103.481 236.597 110.88 255.961 118.756C261.846 123.82 267.947 128.537 274.263 132.906C275.73 134.277 277.301 135.571 278.978 136.791C279.217 137.401 278.94 137.771 278.146 137.901C266.989 133.891 255.897 129.729 244.868 125.415C216.708 110.402 188.237 95.9739 159.455 82.13C158.627 81.4885 158.72 81.0257 159.732 80.7427C161.1 81.3814 162.486 81.9364 163.892 82.4075Z" fill="#F5C509"/>
<path opacity="0.09" fill-rule="evenodd" clip-rule="evenodd" d="M178.312 84.6273C202.34 93.3192 226.374 102.013 250.414 110.709C251.12 111.029 251.12 111.399 250.414 111.819C227.465 103.578 204.54 95.1615 181.64 86.5695C180.012 86.1339 178.903 85.4868 178.312 84.6273Z" fill="#2F2B20"/>
<path fill-rule="evenodd" clip-rule="evenodd" d="M381.308 111.819C377.089 110.972 372.745 110.602 368.274 110.709C365.224 110.802 362.173 110.894 359.123 110.987C358.815 111.199 358.63 111.477 358.568 111.819C357.222 112.214 355.928 112.769 354.686 113.484C349.616 109.798 344.624 106.006 339.711 102.108C343.462 99.4711 347.53 97.5289 351.913 96.2808C367.801 98.591 382.221 104.418 395.174 113.761C390.569 113.156 385.948 112.508 381.308 111.819Z" fill="#B41212"/>
<path fill-rule="evenodd" clip-rule="evenodd" d="M328.618 116.258C331.029 118.292 333.617 120.142 336.382 121.808C336.013 121.993 335.643 122.178 335.273 122.363C320.47 116.246 305.31 115.043 289.794 118.756C284.248 121.626 280.921 126.158 279.81 132.351C279.44 132.536 279.071 132.722 278.701 132.906C277.733 131.934 276.623 131.194 275.373 130.687C270.485 126.634 265.494 122.657 260.398 118.756C259.44 117.985 258.7 117.06 258.18 115.981C272.728 102.45 289.551 98.7509 308.651 104.882C315.557 108.244 322.212 112.036 328.618 116.258Z" fill="#0D6836"/>
<path fill-rule="evenodd" clip-rule="evenodd" d="M381.308 111.819C373.711 111.164 366.131 111.164 358.568 111.819C358.63 111.477 358.815 111.199 359.123 110.987C362.173 110.894 365.224 110.802 368.274 110.709C372.745 110.602 377.089 110.972 381.308 111.819Z" fill="#6D1A1A"/>
<path opacity="0.043" fill-rule="evenodd" clip-rule="evenodd" d="M156.683 76.8582C150.98 75.8871 150.241 77.4597 154.465 81.5751C181.993 96.5472 209.54 111.345 237.105 125.97C239.002 126.913 240.666 128.115 242.096 129.577C212.669 114.392 183.458 98.7614 154.465 82.685C153.448 81.6678 152.431 80.65 151.414 79.6329C150.159 77.5741 150.622 76.094 152.801 75.1934C154.285 75.437 155.579 75.9919 156.683 76.8582Z" fill="#393628"/>
<path fill-rule="evenodd" clip-rule="evenodd" d="M32.4453 113.484C32.6765 113.137 33.0463 112.953 33.5546 112.929C77.24 122.377 120.871 131.996 164.447 141.785C167.229 147.989 171.481 152.891 177.204 156.491C166.649 155.75 156.111 154.64 145.59 153.161C124.737 149.728 103.846 146.584 82.9166 143.728C73.6349 140.571 64.5756 136.871 55.7398 132.629C46.8744 127.547 39.1096 121.166 32.4453 113.484Z" fill="#0D6936"/>
<path fill-rule="evenodd" clip-rule="evenodd" d="M304.215 120.143C304.741 119.781 305.388 119.596 306.156 119.588C310.314 120.069 314.473 120.531 318.635 120.975C324.357 122.582 330.088 124.155 335.829 125.692C335.896 128.318 335.619 130.908 334.997 133.461C333.398 138.206 331.549 142.83 329.451 147.335C327.997 141.263 324.946 136.176 320.299 132.074C317.991 131.77 317.159 132.788 317.803 135.126C322.538 140.333 325.403 146.437 326.4 153.439C323.118 160.362 318.496 166.282 312.534 171.197C312.159 166.743 311.697 162.303 311.148 157.878C310.038 156.398 308.929 156.398 307.82 157.878C307.727 163.621 307.449 169.356 306.988 175.081C303.107 177.245 299.04 178.355 294.786 178.411C292.989 174.739 291.787 170.855 291.181 166.757C290.666 165.351 289.649 164.796 288.131 165.093C287.947 168.889 288.686 172.496 290.349 175.914C286.273 179.477 281.651 180.402 276.483 178.688C276.206 178.411 275.929 178.133 275.651 177.856C275.467 173.232 275.282 168.607 275.097 163.983C273.01 162.339 271.716 162.894 271.214 165.647C270.938 168.972 270.845 172.302 270.937 175.636C268.078 176.509 265.305 177.711 262.618 179.243C259.873 179.826 257.1 180.103 254.298 180.076C252.988 175.172 252.156 170.178 251.802 165.093C251.618 156.769 251.432 148.445 251.248 140.121C250.054 137.355 249.13 134.581 248.475 131.797C259.277 135.954 270.278 139.561 281.475 142.618C284.725 144.892 288.238 146.741 292.013 148.167C301.074 149.231 307.452 145.624 311.148 137.346C312.798 129.931 310.487 124.196 304.215 120.143Z" fill="#0D6936"/>
<path fill-rule="evenodd" clip-rule="evenodd" d="M556.016 121.808C556.959 121.719 557.885 121.811 558.789 122.085C551.361 130.443 543.412 138.212 534.94 145.392C517.734 147.133 500.54 148.982 483.36 150.942C461.49 154.74 439.674 158.81 417.913 163.15C415.685 163.523 413.467 163.707 411.258 163.705C419.051 159.797 425.706 154.432 431.224 147.612C472.914 139.121 514.511 130.52 556.016 121.808Z" fill="#0D6836"/>
<path fill-rule="evenodd" clip-rule="evenodd" d="M163.893 130.132C164.023 129.8 164.3 129.616 164.725 129.577C178.829 134.053 192.972 138.4 207.154 142.618C208.313 162.832 218.667 175.596 238.213 180.908C242.296 181.287 246.363 181.195 250.415 180.631C251.846 186.32 249.72 188.355 244.037 186.735C230.805 185.943 220.267 180.208 212.423 169.532C208.036 162.514 204.801 155.023 202.717 147.057C198.459 146.224 194.207 145.392 189.96 144.56C187.066 144.492 186.141 145.787 187.187 148.444C191.064 150.042 195.131 150.967 199.389 151.219C199.68 154.049 200.235 156.824 201.053 159.543C181.495 158.572 169.108 148.768 163.893 130.132Z" fill="#2E5E2D"/>
<path fill-rule="evenodd" clip-rule="evenodd" d="M339.71 135.681C345.067 147.028 347.562 159.051 347.198 171.752C346.636 174.949 345.896 178.093 344.979 181.186C343.047 179.293 340.829 177.813 338.324 176.746C338.303 168.383 337.749 160.059 336.66 151.774C336.351 150.6 335.889 149.491 335.273 148.445C337.196 144.337 338.675 140.083 339.71 135.681Z" fill="#2E5E2D"/>
<path fill-rule="evenodd" clip-rule="evenodd" d="M292.567 123.473C302.934 122.65 307.094 127.275 305.046 137.346C301.99 142.244 297.646 144.002 292.012 142.618C285.641 139.031 284.162 133.944 287.575 127.357C289.104 125.82 290.768 124.525 292.567 123.473Z" fill="#B31313"/>
<path fill-rule="evenodd" clip-rule="evenodd" d="M293.122 127.912C295.775 127.545 298.179 128.1 300.332 129.577C302.248 135.898 299.844 138.581 293.122 137.623C290.505 135.768 289.673 133.271 290.626 130.132C291.319 129.192 292.151 128.452 293.122 127.912Z" fill="#090202"/>
<path fill-rule="evenodd" clip-rule="evenodd" d="M21.9082 142.34C45.3848 144.837 68.8643 147.335 92.3462 149.832C117.077 153.393 141.85 156.63 166.667 159.543C166.566 163.504 168.045 166.741 171.104 169.255C129.506 169.625 87.9091 169.625 46.3119 169.255C40.1324 163.256 34.1239 157.059 28.2864 150.664C26.2055 147.763 24.0794 144.988 21.9082 142.34Z" fill="#0C6935"/>
<path fill-rule="evenodd" clip-rule="evenodd" d="M428.45 136.791C428.79 139.31 428.143 141.715 426.509 144.005C420.496 152.523 412.454 158.257 402.383 161.208C402.693 158.792 403.062 156.388 403.492 153.994C408.106 153.04 412.451 151.376 416.526 148.999C416.989 147.16 416.249 146.235 414.307 146.225C409.242 147.746 404.158 149.226 399.055 150.664C397.155 163.63 391.054 174.082 380.752 182.018C372.215 186.606 363.156 189.751 353.575 191.452C352.072 192.015 350.778 192.847 349.693 193.949C351.471 194.675 353.32 195.045 355.239 195.059C355.44 198.714 356.272 202.229 357.735 205.603C360.278 212.683 363.144 219.62 366.332 226.413C359.282 225.109 352.534 222.797 346.088 219.476C345.389 207.735 346.775 196.266 350.248 185.07C369.146 184.021 382.364 174.772 389.904 157.323C390.702 154.186 391.719 151.134 392.954 148.167C404.82 144.301 416.652 140.51 428.45 136.791Z" fill="#2E5E2D"/>
<path fill-rule="evenodd" clip-rule="evenodd" d="M568.772 146.225C569.593 146.079 570.331 146.264 570.991 146.78C561.978 156.444 552.18 165.23 541.595 173.139C502.776 174.142 463.952 174.697 425.123 174.804C427.789 172.423 429.638 169.556 430.669 166.202C448.233 162.595 465.796 158.988 483.359 155.381C493.368 154.265 503.351 152.97 513.309 151.497C531.912 150.059 550.399 148.302 568.772 146.225Z" fill="#0D6836"/>
<path fill-rule="evenodd" clip-rule="evenodd" d="M333.055 152.884C334.21 155.663 334.857 158.623 334.996 161.763C335.274 166.569 335.366 171.378 335.274 176.191C327.169 175.944 321.345 179.459 317.803 186.735C317.534 182.646 317.35 178.576 317.248 174.526C323.938 168.303 329.207 161.089 333.055 152.884Z" fill="#2E5E2D"/>
<path fill-rule="evenodd" clip-rule="evenodd" d="M171.104 160.098C181.815 161.314 192.538 162.516 203.272 163.705C205.866 168.714 209.009 173.338 212.701 177.578C200.269 180.225 188.991 177.821 178.868 170.364C175.72 167.315 173.132 163.893 171.104 160.098Z" fill="#2E5E2D"/>
<path fill-rule="evenodd" clip-rule="evenodd" d="M419.577 167.867C420.884 167.777 422.178 167.869 423.46 168.145C414.594 176.961 403.872 180.845 391.291 179.798C394.538 176.351 397.312 172.559 399.61 168.422C406.365 169.839 413.021 169.654 419.577 167.867Z" fill="#2E5E2D"/>
<path fill-rule="evenodd" clip-rule="evenodd" d="M128.951 186.735C112.865 186.642 96.781 186.735 80.6979 187.012C80.0118 187.141 79.4572 187.419 79.034 187.845C76.7395 188.041 74.521 187.764 72.3784 187.012C64.1555 182.298 56.3907 176.933 49.084 170.919C90.4954 170.959 131.908 171.145 173.321 171.474C177.674 175.596 182.666 178.741 188.296 180.908C168.618 183.876 148.837 185.818 128.951 186.735Z" fill="#0C6936"/>
<path fill-rule="evenodd" clip-rule="evenodd" d="M496.67 175.081C510.537 174.989 524.403 175.081 538.267 175.359C529.582 181.37 520.708 187.104 511.645 192.562C485.394 191.788 459.142 190.862 432.888 189.787C422.743 189.082 412.76 187.417 402.938 184.793C409.885 183.711 416.171 181.122 421.795 177.024C446.839 176.252 471.798 175.605 496.67 175.081Z" fill="#0D6835"/>
<path fill-rule="evenodd" clip-rule="evenodd" d="M305.877 322.693C306.038 320.946 305.76 319.281 305.045 317.699C299.265 309.379 292.887 301.518 285.911 294.114C278.078 289.052 271.515 282.67 266.221 274.969C263.624 269.403 261.036 263.853 258.457 258.321C256.384 251.547 253.981 244.888 251.246 238.344C249.204 225.261 250.314 212.498 254.574 200.053C255.526 195.278 256.173 190.468 256.515 185.625C257.07 185.625 257.625 185.625 258.179 185.625C259.836 185.349 261.5 185.071 263.171 184.793C265.505 183.208 268.001 182.006 270.658 181.186C272.943 182.197 275.254 183.214 277.591 184.238C282.58 184.886 287.202 183.869 291.457 181.186C293.2 182.473 295.141 183.398 297.281 183.96C303.081 183.229 308.35 181.194 313.088 177.856C313.966 190.228 314.612 202.621 315.029 215.036C317.175 233.357 319.393 251.67 321.684 269.975C322.428 279.388 321.504 288.637 318.911 297.721C316.323 304.381 313.735 311.04 311.146 317.699C310.179 320.24 308.423 321.905 305.877 322.693Z" fill="#FECB01"/>
<path fill-rule="evenodd" clip-rule="evenodd" d="M329.173 179.521C335.402 178.066 340.302 179.916 343.87 185.07C343.33 189.298 342.776 193.552 342.207 197.834C336.715 202.962 330.706 203.609 324.181 199.776C319.005 194.042 319.005 188.307 324.181 182.573C325.714 181.255 327.377 180.238 329.173 179.521Z" fill="#F5C610"/>
<path fill-rule="evenodd" clip-rule="evenodd" d="M214.919 180.631C218.39 182.622 221.718 184.842 224.902 187.29C215.634 197.378 204.541 199.876 191.624 194.781C189.755 194.034 188.091 193.017 186.633 191.729C196.104 188.018 205.533 184.318 214.919 180.631Z" fill="#2E5E2D"/>
<path fill-rule="evenodd" clip-rule="evenodd" d="M387.963 182.295C389.288 182.694 390.12 183.619 390.459 185.07C391.498 186.296 392.7 187.313 394.064 188.122C399.413 190.428 404.59 193.018 409.594 195.891C400.901 198.164 392.397 197.609 384.081 194.226C380.895 192.448 377.567 190.968 374.098 189.787C379.073 187.855 383.694 185.358 387.963 182.295Z" fill="#2E5E2D"/>
<path fill-rule="evenodd" clip-rule="evenodd" d="M128.952 186.735C112.406 187.263 95.7672 187.632 79.0352 187.845C79.4583 187.419 80.013 187.141 80.699 187.012C96.7822 186.735 112.866 186.642 128.952 186.735Z" fill="#1D5D38"/>
<path fill-rule="evenodd" clip-rule="evenodd" d="M330.282 183.96C337.563 183.272 340.428 186.416 338.879 193.394C336.852 197.04 333.802 198.243 329.728 197.001C325.811 195.053 324.61 192.001 326.123 187.845C327.24 186.229 328.627 184.934 330.282 183.96Z" fill="#100906"/>
<path fill-rule="evenodd" clip-rule="evenodd" d="M180.531 185.625C182.573 185.533 184.607 185.626 186.632 185.902C183.917 186.982 181.143 187.907 178.313 188.677C176.811 189.712 176.349 191.099 176.926 192.839C177.99 193.417 179.006 194.064 179.977 194.781C145.385 202.578 110.72 210.07 75.9835 217.256C75.0811 217.187 74.2491 216.909 73.4876 216.424C64.4483 210.317 56.1288 203.289 48.5293 195.336C79.7405 192.989 110.984 191.139 142.262 189.787C155.127 188.643 167.883 187.256 180.531 185.625Z" fill="#0D6936"/>
<path fill-rule="evenodd" clip-rule="evenodd" d="M229.894 189.51C235.705 191.033 241.621 191.958 247.642 192.284C246.136 195.138 244.842 198.098 243.76 201.163C234.1 207.929 223.377 210.796 211.592 209.765C210.623 209.503 209.699 209.133 208.818 208.655C214.572 203.452 220.488 198.457 226.567 193.672C228.019 192.503 229.128 191.115 229.894 189.51Z" fill="#2E5E2D"/>
<path fill-rule="evenodd" clip-rule="evenodd" d="M331.392 186.735C335.116 186.485 336.872 188.15 336.661 191.729C335.252 194.265 333.125 195.097 330.283 194.226C327.28 191.292 327.649 188.795 331.392 186.735Z" fill="#AE1514"/>
<path fill-rule="evenodd" clip-rule="evenodd" d="M371.325 190.619C372.577 190.772 372.762 191.327 371.879 192.284C376.467 199.75 382.014 206.502 388.518 212.539C383.11 212.215 378.118 210.55 373.543 207.545C369.144 204.255 365.077 200.555 361.342 196.446C360.276 196.246 359.351 195.784 358.568 195.059C358.684 194.734 358.87 194.456 359.123 194.226C363.405 193.528 367.472 192.326 371.325 190.619Z" fill="#2E5E2D"/>
<path fill-rule="evenodd" clip-rule="evenodd" d="M412.367 191.729C412.598 191.383 412.968 191.198 413.476 191.174C427.826 193.149 442.246 194.351 456.738 194.781C473.389 194.967 490.028 195.522 506.654 196.446C521.275 197.805 535.88 199.284 550.47 200.886C546.033 204.4 541.596 207.915 537.159 211.429C532.352 214.574 527.545 217.718 522.738 220.863C521.907 220.956 521.075 221.048 520.243 221.141C486.861 213.905 453.491 206.599 420.132 199.221C417.762 198.916 417.392 197.991 419.023 196.446C418.943 195.253 418.389 194.327 417.359 193.672C415.681 193.015 414.017 192.368 412.367 191.729Z" fill="#0D6836"/>
<path fill-rule="evenodd" clip-rule="evenodd" d="M179.978 196.169C186.828 198.177 193.668 200.119 200.499 201.995C172.186 212.539 143.9 222.991 115.641 233.349C102.406 229.706 89.6495 224.804 77.3711 218.643C111.699 211.377 145.902 203.886 179.978 196.169Z" fill="#0D6936"/>
<path fill-rule="evenodd" clip-rule="evenodd" d="M415.141 199.498C449.749 207.057 484.32 214.733 518.857 222.528C507.614 228.061 495.966 232.501 483.915 235.846C482.806 236.217 481.696 236.217 480.587 235.846C466.109 229.6 451.503 223.681 436.771 218.089C424.151 213.571 411.58 208.947 399.057 204.215C398.872 204.03 398.687 203.845 398.502 203.66C401.45 203.209 404.408 202.84 407.376 202.55C410.154 201.863 412.743 200.846 415.141 199.498Z" fill="#0D6936"/>
<path fill-rule="evenodd" clip-rule="evenodd" d="M333.055 213.372C332.685 227.524 332.316 241.768 331.946 256.101C330.693 256.259 329.768 256.814 329.173 257.766C326.506 259.391 324.934 261.796 324.458 264.98C322.22 247.823 320.186 230.62 318.357 213.372C317.742 207.276 317.556 201.171 317.803 195.059C320.691 202.104 325.96 205.433 333.61 205.048C333.241 207.807 333.057 210.582 333.055 213.372Z" fill="#2E5F2D"/>
<path fill-rule="evenodd" clip-rule="evenodd" d="M337.493 256.656C336.396 242.354 336.027 227.926 336.383 213.372C336.201 210.389 336.386 207.429 336.938 204.493C338.186 203.83 339.481 203.275 340.82 202.828C341.505 222.073 342.151 241.311 342.762 260.541C341.214 258.896 339.458 257.601 337.493 256.656Z" fill="#2E5F2D"/>
<path fill-rule="evenodd" clip-rule="evenodd" d="M199.944 206.712C200.706 206.625 201.445 206.718 202.163 206.99C201.15 207.803 200.873 208.821 201.331 210.042C202.57 211.263 203.956 212.28 205.49 213.094C178.619 228.706 151.627 244.059 124.514 259.154C123.775 259.524 123.035 259.524 122.296 259.154C112.585 256.237 103.341 252.26 94.5645 247.223C94.6804 246.897 94.8656 246.62 95.1191 246.39C122.967 236.62 150.513 226.076 177.759 214.759C185.278 212.222 192.673 209.54 199.944 206.712Z" fill="#0D6836"/>
<path fill-rule="evenodd" clip-rule="evenodd" d="M384.08 201.163C423.661 216.496 463.224 232.127 502.771 248.055C491.108 254.255 478.721 257.769 465.611 258.599C442.686 244.725 419.761 230.852 396.837 216.979C396.102 215.076 395.086 213.319 393.786 211.707C390.625 208.083 387.39 204.569 384.08 201.163Z" fill="#0D6936"/>
<path fill-rule="evenodd" clip-rule="evenodd" d="M206.599 213.927C211.004 214.983 215.441 215.169 219.91 214.482C220.465 214.666 221.019 214.852 221.574 215.036C199.435 230.091 177.99 246.092 157.237 263.038C150.612 262.564 143.957 262.194 137.27 261.928C133.502 261.54 129.804 260.801 126.178 259.709C153.182 244.721 179.989 229.461 206.599 213.927Z" fill="#0D6836"/>
<path fill-rule="evenodd" clip-rule="evenodd" d="M240.432 207.267C240.985 207.251 241.354 207.528 241.541 208.1C240.075 211.391 239.058 214.812 238.49 218.366C219.153 238.328 199.833 258.213 180.532 278.021C169.174 280.614 157.712 281.169 146.145 279.686C168.643 260.315 191.938 242.002 216.028 224.748C222.313 220.678 228.6 216.609 234.885 212.539C237.027 211.043 238.875 209.286 240.432 207.267Z" fill="#0D6836"/>
<path fill-rule="evenodd" clip-rule="evenodd" d="M364.115 208.377C383.066 224.284 402.108 240.1 421.242 255.824C431.59 264.884 441.759 274.132 451.747 283.571C446.032 284.925 440.301 286.219 434.553 287.455C431.762 287.915 428.989 287.823 426.234 287.178C408.726 268.456 390.886 249.959 372.712 231.684C372.435 231.129 372.157 230.575 371.88 230.02C372.426 229.133 372.518 228.208 372.157 227.245C369.424 220.984 366.743 214.695 364.115 208.377Z" fill="#0D6936"/>
<path fill-rule="evenodd" clip-rule="evenodd" d="M345.812 225.025C348.228 226.096 350.538 227.39 352.745 228.91C357.217 245.973 361.654 262.991 366.056 279.964C361.964 276.708 358.082 273.194 354.409 269.42C352.044 265.604 349.548 261.904 346.922 258.321C346.306 247.23 345.936 236.132 345.812 225.025Z" fill="#0E6836"/>
<path fill-rule="evenodd" clip-rule="evenodd" d="M333.054 213.372C333.239 227.805 333.054 242.233 332.5 256.656C331.418 257.14 330.309 257.51 329.172 257.766C329.768 256.814 330.692 256.259 331.945 256.101C332.315 241.768 332.684 227.524 333.054 213.372Z" fill="#3B543A"/>
<path fill-rule="evenodd" clip-rule="evenodd" d="M394.063 217.811C395.686 217.789 397.164 218.251 398.501 219.198C419.946 232.332 441.392 245.465 462.838 258.599C451.848 259.317 440.941 258.762 430.114 256.934C414.792 244.379 399.632 231.616 384.635 218.644C387.878 218.548 391.021 218.27 394.063 217.811Z" fill="#0D6836"/>
<path fill-rule="evenodd" clip-rule="evenodd" d="M336.383 213.372C336.026 227.926 336.396 242.354 337.492 256.656C336.938 256.656 336.383 256.656 335.828 256.656C335.645 242.133 335.83 227.704 336.383 213.372Z" fill="#314930"/>
<path fill-rule="evenodd" clip-rule="evenodd" d="M369.662 231.129C373.124 233.758 376.359 236.717 379.368 240.008C394.266 255.654 409.148 271.284 424.015 286.9C415.081 286.793 406.577 284.758 398.502 280.796C394.747 279.057 391.142 277.115 387.687 274.969C380.359 260.579 372.687 246.428 364.67 232.517C366.528 232.485 368.192 232.022 369.662 231.129Z" fill="#0D6836"/>
<path fill-rule="evenodd" clip-rule="evenodd" d="M258.18 185.625C257.625 185.625 257.071 185.625 256.516 185.625C256.174 190.468 255.527 195.277 254.575 200.053C250.314 212.498 249.205 225.261 251.247 238.344C253.982 244.888 256.385 251.547 258.457 258.321C261.036 263.853 263.625 269.403 266.222 274.969C271.516 282.67 278.079 289.052 285.912 294.114C292.888 301.518 299.266 309.379 305.046 317.699C305.761 319.281 306.039 320.946 305.878 322.693C305.089 320.775 303.98 318.925 302.55 317.144C295.495 309.065 287.36 302.313 278.147 296.889C273.04 294.694 268.049 292.29 263.172 289.675C257.631 283.384 253.471 276.263 250.693 268.31C246.133 254.35 243.637 240.014 243.205 225.303C243.642 220.105 244.659 215.018 246.256 210.042C249.549 201.726 252.785 193.402 255.962 185.07C256.848 184.921 257.588 185.107 258.18 185.625Z" fill="#B7850C"/>
<path fill-rule="evenodd" clip-rule="evenodd" d="M237.104 221.696C237.706 221.762 238.076 222.132 238.213 222.805C230.943 237.722 223.363 252.52 215.473 267.2C205.186 271.991 194.464 275.228 183.305 276.911C201.365 258.564 219.298 240.159 237.104 221.696Z" fill="#0D6836"/>
<path fill-rule="evenodd" clip-rule="evenodd" d="M237.659 231.684C238.702 236.743 239.164 241.923 239.046 247.223C233.826 257.853 228.465 268.397 222.961 278.854C218.813 281.811 214.284 283.753 209.373 284.68C219.726 267.573 229.155 249.908 237.659 231.684Z" fill="#0E6835"/>
<path fill-rule="evenodd" clip-rule="evenodd" d="M354.131 228.91C355.822 229.351 357.486 229.906 359.123 230.575C360.602 234.916 362.358 239.17 364.392 243.338C372.972 258.564 381.198 274.009 389.073 289.675C385.823 289.839 382.68 289.284 379.644 288.01C375.854 285.698 372.064 283.386 368.274 281.073C363.377 263.699 358.663 246.311 354.131 228.91Z" fill="#0D6836"/>
<path fill-rule="evenodd" clip-rule="evenodd" d="M239.323 248.887C239.925 248.954 240.295 249.324 240.432 249.997C241.521 254.242 242.353 258.497 242.928 262.761C237.71 267.985 232.163 272.794 226.289 277.189C225.919 276.634 225.919 276.079 226.289 275.524C230.782 266.718 235.127 257.84 239.323 248.887Z" fill="#106636"/>
<path fill-rule="evenodd" clip-rule="evenodd" d="M332.501 259.431C339.362 258.987 342.228 262.132 341.098 268.865C338.636 272.742 335.215 273.945 330.837 272.472C327.764 270.351 326.747 267.484 327.787 263.871C328.95 261.871 330.522 260.391 332.501 259.431Z" fill="#EFC312"/>
<path fill-rule="evenodd" clip-rule="evenodd" d="M333.055 261.096C338.52 261.101 340.461 263.691 338.879 268.865C335.449 272.054 332.49 271.683 330.005 267.755C329.38 264.752 330.397 262.533 333.055 261.096Z" fill="#120A05"/>
<path fill-rule="evenodd" clip-rule="evenodd" d="M333.055 264.425C334.222 264.26 335.331 264.444 336.383 264.98C337.146 267.455 336.222 268.473 333.609 268.033C332.315 267.01 332.13 265.808 333.055 264.425Z" fill="#A61615"/>
<path fill-rule="evenodd" clip-rule="evenodd" d="M343.038 271.085C344.362 279.129 344.454 287.268 343.315 295.502C338.525 300.85 333.534 306.029 328.34 311.04C327.97 310.3 327.97 309.56 328.34 308.82C332.237 298.189 335.01 287.275 336.659 276.079C339.354 275.141 341.48 273.476 343.038 271.085Z" fill="#2E5E2E"/>
<path fill-rule="evenodd" clip-rule="evenodd" d="M324.735 269.975C326.511 273.645 329.469 275.679 333.609 276.079C331.727 289.902 328.122 303.22 322.794 316.034C319.559 318.531 316.323 321.029 313.088 323.526C312.718 323.896 312.348 323.896 311.979 323.526C317.294 312.978 321.453 301.972 324.458 290.507C325.762 283.648 325.854 276.804 324.735 269.975Z" fill="#2E5E2E"/>
<path fill-rule="evenodd" clip-rule="evenodd" d="M344.147 301.051C344.887 301.051 345.627 301.051 346.366 301.051C349.094 310.997 352.329 320.801 356.072 330.462C360.274 339.795 364.619 349.044 369.106 358.209C368.921 358.394 368.736 358.579 368.551 358.764C363.149 356.384 357.88 353.795 352.744 350.995C347.551 341.136 343.114 330.962 339.433 320.474C338.011 317.444 336.44 314.484 334.719 311.595C336.578 309.272 338.704 307.237 341.097 305.49C342.236 304.077 343.253 302.597 344.147 301.051Z" fill="#2E5E2D"/>
<path fill-rule="evenodd" clip-rule="evenodd" d="M331.392 313.26C331.946 313.26 332.501 313.26 333.056 313.26C338.744 325.198 344.29 337.222 349.695 349.33C349.417 349.515 349.14 349.7 348.863 349.885C344.602 348.078 340.257 346.505 335.829 345.168C334.748 344.623 333.731 343.975 332.778 343.226C329.407 336.295 325.895 329.451 322.24 322.693C321.87 322.138 321.87 321.584 322.24 321.029C325.421 318.485 328.472 315.895 331.392 313.26Z" fill="#2E5E2D"/>
<path fill-rule="evenodd" clip-rule="evenodd" d="M318.079 323.248C318.731 323.127 319.285 323.312 319.743 323.803C323.493 329.641 326.821 335.745 329.726 342.116C329.449 342.301 329.172 342.486 328.894 342.671C324.658 341.079 320.313 339.877 315.861 339.064C313.533 335.717 311.314 332.294 309.205 328.798C311.091 328.016 312.939 327.183 314.751 326.3C316.136 325.562 317.245 324.545 318.079 323.248Z" fill="#2F5E2E"/>
<path fill-rule="evenodd" clip-rule="evenodd" d="M335.273 348.775C341.252 350.795 347.075 353.199 352.744 355.989C369.452 388.809 383.226 422.66 394.064 457.542C385.126 453.946 376.252 450.246 367.442 446.443C364.974 432.529 361.554 418.84 357.181 405.378C353.672 395.395 350.16 385.406 346.643 375.412C342.802 366.567 339.012 357.689 335.273 348.775Z" fill="#0D6936"/>
<path fill-rule="evenodd" clip-rule="evenodd" d="M318.08 342.671C322.55 344.379 327.08 346.044 331.669 347.665C343.558 372.427 353.171 398.139 360.509 424.801C362.005 431.636 363.391 438.48 364.669 445.334C358.917 443.261 353.186 441.134 347.475 438.952C346.961 438.736 346.591 438.366 346.366 437.842C343.071 411.98 336.692 386.916 327.231 362.649C324.335 355.886 321.284 349.227 318.08 342.671Z" fill="#0D6936"/>
<path fill-rule="evenodd" clip-rule="evenodd" d="M355.795 357.099C361.497 359.397 367.043 361.987 372.434 364.868C385.637 387.955 398.856 411.077 412.09 434.235C416.795 444.398 422.342 454.017 428.729 463.091C430.667 466.842 432.516 470.541 434.275 474.19C432.842 473.428 431.456 472.595 430.115 471.693C419.15 467.235 408.15 462.888 397.115 458.652C390.574 440.685 383.919 422.742 377.148 404.823C370.455 388.662 363.337 372.753 355.795 357.099Z" fill="#0D6936"/>
</svg>
